<svg width="23" height="22" viewBox="0 0 23 22" fill="none" xmlns="http://www.w3.org/2000/svg">
<path fill-rule="evenodd" clip-rule="evenodd" d="M0.446387 10.0168C0.446387 4.55906 5.54651 0.375 11.5179 0.375C17.4893 0.375 22.5894 4.55906 22.5894 10.0168C22.5894 15.4746 17.4893 19.6587 11.5179 19.6587C10.1938 19.6587 8.92107 19.4563 7.73984 19.0834C6.3466 20.3837 4.32227 21.0088 1.84596 21.1061C0.837224 21.1457 0.109136 20.0965 0.531518 19.1574C1.13073 17.8156 1.90495 16.2775 1.99676 14.9359C1.01624 13.5081 0.446387 11.8231 0.446387 10.0168ZM11.5179 2.30357C6.32517 2.30357 2.37496 5.88966 2.37496 10.0168C2.37496 11.4989 2.87122 12.8893 3.74604 14.0674C3.86948 14.2337 3.93614 14.4353 3.93614 14.6423C3.93614 16.2177 3.30813 17.7041 2.66865 19.1149C4.65129 18.9042 5.95196 18.2694 6.73626 17.3464C6.99967 17.0365 7.42928 16.9251 7.81009 17.0681C8.94043 17.4926 10.1943 17.7301 11.5179 17.7301C16.7107 17.7301 20.6609 14.144 20.6609 10.0168C20.6609 5.88966 16.7107 2.30357 11.5179 2.30357Z" fill="black"/>
</svg>
