<svg width="27" height="27" viewBox="0 0 27 27" fill="none" xmlns="http://www.w3.org/2000/svg">
<circle cx="13.5" cy="13.5" r="13.5" fill="white"/>
<path d="M12.4551 21H14.5742V10.4727H12.4551V21ZM13.5195 8.65625C13.8841 8.65625 14.1934 8.5293 14.4473 8.27539C14.7012 8.01497 14.8281 7.70898 14.8281 7.35742C14.8281 6.99284 14.7012 6.68685 14.4473 6.43945C14.1934 6.18555 13.8841 6.05859 13.5195 6.05859C13.1615 6.05859 12.8522 6.18555 12.5918 6.43945C12.3379 6.68685 12.2109 6.99284 12.2109 7.35742C12.2109 7.70898 12.3379 8.01497 12.5918 8.27539C12.8522 8.5293 13.1615 8.65625 13.5195 8.65625Z" fill="#474747"/>
</svg>
